<svg xmlns="http://www.w3.org/2000/svg" width="1430" height="1012" viewBox="0 0 1430 1012">
  <g fill="#FF8282" fill-rule="evenodd" font-family="IBMPlexMono-Medium, IBM Plex Mono" font-size="18" font-weight="400" opacity=".5" transform="translate(-6 -1)">
    <text opacity=".78" transform="rotate(-37 1385 421.5)">
      <tspan x="1380" y="428">*</tspan>
    </text>
    <text opacity=".91" transform="rotate(-60 1261.5 149.5)">
      <tspan x="1256" y="156">*</tspan>
    </text>
    <text opacity=".95" transform="rotate(86 977.5 5.5)">
      <tspan x="973" y="12">*</tspan>
    </text>
    <text opacity=".74" transform="rotate(64 568.5 268.5)">
      <tspan x="563" y="275">*</tspan>
    </text>
    <text opacity=".82" transform="rotate(98 908.5 509.5)">
      <tspan x="904" y="516">*</tspan>
    </text>
    <text transform="rotate(-135 664 985.5)">
      <tspan x="658" y="992">*</tspan>
    </text>
    <text opacity=".75" transform="rotate(-180 464 932.5)">
      <tspan x="458" y="939">*</tspan>
    </text>
    <text opacity=".88" transform="rotate(-163 260.5 998.5)">
      <tspan x="255" y="1005">*</tspan>
    </text>
    <text opacity=".86" transform="rotate(127 286 742.5)">
      <tspan x="280" y="749">*</tspan>
    </text>
    <text opacity=".82" transform="rotate(-142 721 281.5)">
      <tspan x="716" y="288">*</tspan>
    </text>
    <text opacity=".78" transform="rotate(-174 648 125.5)">
      <tspan x="642" y="132">*</tspan>
    </text>
    <text opacity=".85" transform="rotate(92 1232 520.5)">
      <tspan x="1228" y="527">*</tspan>
    </text>
    <text opacity=".82" transform="rotate(55 941.5 773.5)">
      <tspan x="936" y="780">*</tspan>
    </text>
    <text opacity=".94" transform="rotate(-176 573 168.5)">
      <tspan x="567" y="175">*</tspan>
    </text>
    <text opacity=".72" transform="rotate(153 250 390.5)">
      <tspan x="245" y="397">*</tspan>
    </text>
    <text opacity=".83" transform="rotate(-161 1431 1009.5)">
      <tspan x="1426" y="1016">*</tspan>
    </text>
    <text opacity=".79" transform="rotate(113 1058 1006.5)">
      <tspan x="1052" y="1013">*</tspan>
    </text>
    <text opacity=".91" transform="rotate(30 1114 283.5)">
      <tspan x="1109" y="290">*</tspan>
    </text>
    <text opacity=".79" transform="rotate(-4 662.5 658.5)">
      <tspan x="656" y="665">*</tspan>
    </text>
    <text opacity=".89" transform="rotate(95 516 551.5)">
      <tspan x="512" y="558">*</tspan>
    </text>
    <text opacity=".78" transform="rotate(178 221.5 176.5)">
      <tspan x="215" y="183">*</tspan>
    </text>
    <text opacity=".76" transform="rotate(-116 80 827.5)">
      <tspan x="75" y="834">*</tspan>
    </text>
    <text opacity=".73" transform="rotate(151 1277 619.5)">
      <tspan x="1272" y="626">*</tspan>
    </text>
    <text opacity=".99" transform="rotate(-120 1198.5 153.5)">
      <tspan x="1193" y="160">*</tspan>
    </text>
    <text opacity=".95" transform="rotate(142 1019 372.5)">
      <tspan x="1014" y="379">*</tspan>
    </text>
    <text opacity=".89" transform="rotate(176 157.5 705.5)">
      <tspan x="152" y="712">*</tspan>
    </text>
    <text opacity=".7" transform="rotate(38 12.5 342.5)">
      <tspan x="6" y="349">*</tspan>
    </text>
    <text opacity=".72" transform="rotate(105 95 103.5)">
      <tspan x="90" y="110">*</tspan>
    </text>
  </g>
</svg>
