<svg xmlns="http://www.w3.org/2000/svg" width="131" height="16" viewBox="0 0 131 16">
  <title>codemonauts-logo</title>
  <g>
    <polygon points="5.12 5.02 0 10.42 5.12 15.8 6.29 15.8 6.29 15.63 1.36 10.38 6.29 5.18 6.29 5.02 5.12 5.02" fill="#850d87"/>
    <path d="M12.71,16c-2.66,0-4-1.73-4-5.6s1.42-5.58,4.06-5.58a11.28,11.28,0,0,1,2.5.32L15,6.23a8.33,8.33,0,0,0-2.2-.39c-2.14,0-2.94,1.28-2.94,4.55,0,3.57,1,4.55,2.88,4.55a6.56,6.56,0,0,0,2.46-.57l.24,1.08a8.66,8.66,0,0,1-2.76.55" fill="#850d87"/>
    <path d="M21.38,16c-2.66,0-4.32-1.48-4.32-5.58s1.76-5.6,4.32-5.6,4.28,1.26,4.28,5.6C25.65,14.54,24,16,21.38,16m0-10.21c-1.94,0-3.14,1-3.14,4.63S19.36,15,21.38,15s3.1-1.06,3.1-4.61c0-3.8-1.32-4.63-3.1-4.63" fill="#850d87"/>
    <path d="M34.64,15.8v-.91h-.1A6.88,6.88,0,0,1,31.31,16c-2,0-3.66-.87-3.66-5.44s2.1-5.75,4.42-5.75a8.2,8.2,0,0,1,2.58.51V.24L35.74,0V15.8Zm0-9.52A8.66,8.66,0,0,0,32,5.81c-1.62,0-3.22.77-3.22,4.75,0,3.67,1.08,4.43,2.66,4.43.66,0,1.3-.14,3.14-1.06Z" fill="#850d87"/>
    <path d="M42.71,16c-2.92,0-4.18-1.73-4.18-5.32,0-4,1.46-5.87,4.1-5.87,2.16,0,3.56,1.22,3.56,4,0,.3,0,1.08,0,1.68l-6.43.14c0,3.37,1,4.35,3,4.35a9.66,9.66,0,0,0,3-.67L46,15.35a12.66,12.66,0,0,1-3.24.65m2.4-7.31c0-2-.92-2.94-2.48-2.94-1.74,0-2.82,1-2.9,4l5.36-.1c0-.41,0-.85,0-.93" fill="#850d87"/>
    <polygon points="49.77 5.02 54.9 10.42 49.77 15.8 48.61 15.8 48.61 15.63 53.52 10.44 48.61 5.18 48.61 5.02 49.77 5.02" fill="#850d87"/>
    <path d="M70.17,15.8V7.37c0-1.06-.24-1.48-1.56-1.48a7.71,7.71,0,0,0-3.38,1V15.8h-1.1V7.37c0-1.1-.3-1.48-1.44-1.48a8.64,8.64,0,0,0-3.48,1V15.8h-1.1V5h1.1V6h.1a9.13,9.13,0,0,1,3.9-1.16c.9,0,1.6.24,1.86,1.22h.1A7.44,7.44,0,0,1,69,4.81c1.72,0,2.28.91,2.28,2.15V15.8Z" fill="#777776"/>
    <path d="M78.34,16C75.68,16,74,14.52,74,10.42s1.76-5.6,4.32-5.6,4.28,1.26,4.28,5.6c0,4.12-1.68,5.58-4.28,5.58m0-10.21c-1.94,0-3.14,1-3.14,4.63S76.32,15,78.34,15s3.1-1.06,3.1-4.61c0-3.8-1.32-4.63-3.1-4.63" fill="#777776"/>
    <path d="M91.86,15.8V7.37c0-1.06-.22-1.48-1.64-1.48a8.39,8.39,0,0,0-3.72,1V15.8h-1.1V5h1.1V6h.1a8.91,8.91,0,0,1,4-1.16C92,4.81,93,5.3,93,7V15.8Z" fill="#777776"/>
    <path d="M102,15.8l-.1-.83h-.1a8.28,8.28,0,0,1-3.52,1c-1.6,0-2.58-.87-2.58-2.74a2.57,2.57,0,0,1,2.22-2.8l3.94-.45V7c0-.79-.4-1.14-1.32-1.14a16.51,16.51,0,0,0-3.84.71l-.22-1a16.41,16.41,0,0,1,4.16-.71c1.82,0,2.3.79,2.3,2v9Zm-.14-4.87-4.38.47a2.41,2.41,0,0,0-.66,1.77c0,1.36.5,1.85,1.92,1.85a9.31,9.31,0,0,0,3.12-.89Z" fill="#777776"/>
    <path d="M112.86,15.8v-1h-.1A8.14,8.14,0,0,1,108.82,16c-1.7,0-2.38-.69-2.38-2.15V5h1.1v8.45c0,1.06.22,1.48,1.62,1.48a7.79,7.79,0,0,0,3.66-1V5h1.1V15.8Z" fill="#777776"/>
    <path d="M119.93,16c-1.16,0-1.66-.57-1.66-1.87V6h-1.52V5h1.52V2.56l1.1-.24V5h3.2V6h-3.2v8.24c0,.53.26.69.7.69a6,6,0,0,0,2.5-.77l.24,1a7,7,0,0,1-2.88.81" fill="#777776"/>
    <path d="M127.6,16a12,12,0,0,1-3.14-.53l.26-1.06a10.37,10.37,0,0,0,3,.59c1.3,0,2.22-.57,2.22-1.83,0-1.1-.48-1.56-1.94-2.13l-1.62-.65a2.42,2.42,0,0,1-1.8-2.34c0-2.07,1.44-3.25,3.54-3.25a16,16,0,0,1,2.54.26l-.22,1.1A9.67,9.67,0,0,0,128,5.81c-1.28,0-2.34.59-2.34,2.07,0,1,.34,1.22,1.86,1.85l1.7.69A2.64,2.64,0,0,1,131,12.93C131,15,129.62,16,127.6,16" fill="#777776"/>
  </g>
</svg>
