<svg xmlns="http://www.w3.org/2000/svg" viewBox="0 0 128 31" aria-labelledby="melsicon-logo" role="img" class="logo"><title id="melsicon-logo">melsicon</title><g fill="#6464e1" stroke="none" stroke-width="1" fill-rule="evenodd"><path d="M26.6288224,7.98096842 C26.4020533,7.95893914 26.166534,7.94792453 25.9222642,7.94792453 C24.790183,7.94792453 23.8109475,8.22528025 22.9845283,8.78 C22.1581091,9.33471975 21.3713245,9.99697728 20.6241509,10.7667925 C20.1939601,9.86112755 19.6109471,9.16490809 18.8750943,8.67811321 C18.1392416,8.19131832 17.1713268,7.94792453 15.9713208,7.94792453 C14.8618812,7.94792453 13.9109474,8.20263896 13.1184906,8.71207547 C12.3260338,9.22151198 11.5788714,9.8271663 10.8769811,10.5290566 L10.7411321,10.5290566 L10.4015094,8.3554717 L6.32603774,8.3554717 L6.32603774,25.2007547 L11.3184906,25.2007547 L11.3184906,13.8233962 C12.3600052,12.7365983 13.3109391,12.1932075 14.1713208,12.1932075 C14.8958527,12.1932075 15.4222625,12.4196204 15.750566,12.8724528 C16.0788696,13.3252853 16.2430189,14.1630128 16.2430189,15.3856604 L16.2430189,25.2007547 L21.2354717,25.2007547 L21.2354717,13.8233962 C22.3222696,12.7365983 23.2845241,12.1932075 24.1222642,12.1932075 C24.8467961,12.1932075 25.3732059,12.4196204 25.7015094,12.8724528 C26.029813,13.3252853 26.1939623,14.1630128 26.1939623,15.3856604 L26.1939623,25.1003314 C23.5530296,28.4956661 19.4285852,30.68 14.7939623,30.68 C6.82230503,30.68 0.36,24.217695 0.36,16.2460377 C0.36,8.2743805 6.82230503,1.81207547 14.7939623,1.81207547 C19.6914452,1.81207547 24.0192374,4.25121187 26.6288224,7.98096842 Z M37.8769811,25.6083019 C36.6769751,25.6083019 35.5562316,25.4101907 34.514717,25.0139623 C33.4732023,24.6177339 32.567551,24.0403812 31.7977358,23.2818868 C31.0279207,22.5233924 30.4279267,21.6007602 29.9977358,20.5139623 C29.567545,19.4271644 29.3524528,18.1818938 29.3524528,16.7781132 C29.3524528,15.4196158 29.5788657,14.1913262 30.0316981,13.0932075 C30.4845306,11.9950888 31.0788642,11.0667962 31.814717,10.3083019 C32.5505697,9.54980753 33.3939575,8.96679449 34.3449057,8.55924528 C35.2958538,8.15169608 36.2807496,7.94792453 37.2996226,7.94792453 C38.4996286,7.94792453 39.546788,8.15169608 40.4411321,8.55924528 C41.3354762,8.96679449 42.0826385,9.53282657 42.6826415,10.2573585 C43.2826445,10.9818904 43.7298098,11.8365988 44.0241509,12.8215094 C44.318492,13.80642 44.4656604,14.8762206 44.4656604,16.0309434 C44.4656604,16.4837758 44.4430191,16.9139602 44.3977358,17.3215094 C44.3524526,17.7290586 44.30717,18.034716 44.2618868,18.2384906 L34.1750943,18.2384906 C34.4015106,19.4611382 34.9052791,20.3611292 35.6864151,20.9384906 C36.4675511,21.5158519 37.4241453,21.8045283 38.5562264,21.8045283 C39.7562324,21.8045283 40.9675411,21.4309471 42.1901887,20.6837736 L43.8543396,23.7064151 C42.993958,24.2950973 42.0373638,24.7592436 40.9845283,25.0988679 C39.9316928,25.4384923 38.8958542,25.6083019 37.8769811,25.6083019 Z M34.1411321,14.9441509 L40.2203774,14.9441509 C40.2203774,13.9932028 40.0052852,13.2233992 39.5750943,12.634717 C39.1449035,12.0460348 38.4203825,11.7516981 37.4015094,11.7516981 C36.6090526,11.7516981 35.9128332,12.0120729 35.3128302,12.5328302 C34.7128272,13.0535875 34.3222651,13.8573531 34.1411321,14.9441509 Z M51.9486792,25.6083019 C51.0882976,25.6083019 50.3637765,25.4724542 49.7750943,25.2007547 C49.1864122,24.9290552 48.7166055,24.5498138 48.3656604,24.0630189 C48.0147152,23.576224 47.7600008,22.9875506 47.6015094,22.2969811 C47.4430181,21.6064116 47.3637736,20.8309477 47.3637736,19.970566 L47.3637736,1.39320755 L52.3562264,1.39320755 L52.3562264,20.1743396 C52.3562264,20.6950969 52.4524519,21.0573575 52.6449057,21.2611321 C52.8373595,21.4649067 53.0354707,21.5667925 53.2392453,21.5667925 L53.5279245,21.5667925 C53.6071702,21.5667925 53.7147163,21.5441512 53.850566,21.4988679 L54.4618868,25.2007547 C54.1901873,25.3139628 53.8449078,25.4101883 53.4260377,25.489434 C53.0071677,25.5686796 52.5147198,25.6083019 51.9486792,25.6083019 Z M61.469434,25.6083019 C60.3599945,25.6083019 59.22227,25.3932097 58.0562264,24.9630189 C56.8901828,24.532828 55.8769854,23.966796 55.0166038,23.2649057 L57.2581132,20.1403774 C58.0279284,20.7290595 58.7637701,21.1705646 59.4656604,21.4649057 C60.1675507,21.7592468 60.8807511,21.9064151 61.605283,21.9064151 C62.3524566,21.9064151 62.8958474,21.781888 63.2354717,21.5328302 C63.575096,21.2837723 63.7449057,20.9328325 63.7449057,20.48 C63.7449057,20.2083005 63.6486802,19.9649067 63.4562264,19.7498113 C63.2637726,19.5347159 63.0033979,19.3366047 62.6750943,19.1554717 C62.3467908,18.9743387 61.97887,18.8101894 61.5713208,18.6630189 C61.1637715,18.5158483 60.7449078,18.351699 60.314717,18.170566 C59.7939597,17.9667914 59.2732102,17.729058 58.7524528,17.4573585 C58.2316955,17.185659 57.7562286,16.8517001 57.3260377,16.4554717 C56.8958469,16.0592433 56.544907,15.595097 56.2732075,15.0630189 C56.0015081,14.5309407 55.8656604,13.9139658 55.8656604,13.2120755 C55.8656604,12.4422603 56.018489,11.7290599 56.3241509,11.0724528 C56.6298128,10.4158458 57.0656575,9.86113434 57.6316981,9.40830189 C58.1977387,8.95546943 58.8769772,8.59886923 59.669434,8.33849057 C60.4618908,8.07811191 61.3449008,7.94792453 62.3184906,7.94792453 C63.6090631,7.94792453 64.7411272,8.16867704 65.714717,8.61018868 C66.6883068,9.05170032 67.5373549,9.54414823 68.2618868,10.0875472 L66.0203774,13.0762264 C65.4090535,12.623394 64.8090595,12.2724541 64.2203774,12.0233962 C63.6316952,11.7743384 63.0430218,11.6498113 62.4543396,11.6498113 C61.1864088,11.6498113 60.5524528,12.0913163 60.5524528,12.9743396 C60.5524528,13.2460391 60.643018,13.4781122 60.8241509,13.670566 C61.0052839,13.8630198 61.2486777,14.0384898 61.5543396,14.1969811 C61.8600015,14.3554725 62.2109414,14.5083012 62.6071698,14.6554717 C63.0033982,14.8026422 63.4166016,14.9554709 63.8467925,15.1139623 C64.3901914,15.3177369 64.9279219,15.54981 65.46,15.8101887 C65.9920781,16.0705673 66.4788657,16.3932056 66.9203774,16.7781132 C67.361889,17.1630208 67.7184892,17.6328274 67.9901887,18.1875472 C68.2618882,18.7422669 68.3977358,19.4045245 68.3977358,20.1743396 C68.3977358,20.9441548 68.2505675,21.6573552 67.9562264,22.3139623 C67.6618853,22.9705693 67.2203803,23.5422617 66.6316981,24.0290566 C66.0430159,24.5158515 65.3184949,24.9007533 64.4581132,25.1837736 C63.5977315,25.4667939 62.6015151,25.6083019 61.469434,25.6083019 Z M70.9901887,25.2007547 L70.9901887,8.3554717 L75.9826415,8.3554717 L75.9826415,25.2007547 L70.9901887,25.2007547 Z M73.469434,5.87622642 C72.6316939,5.87622642 71.9411348,5.63283262 71.3977358,5.14603774 C70.8543369,4.65924285 70.5826415,4.03094725 70.5826415,3.26113208 C70.5826415,2.49131691 70.8543369,1.86868162 71.3977358,1.39320755 C71.9411348,0.917733472 72.6316939,0.68 73.469434,0.68 C74.3298156,0.68 75.0260351,0.917733472 75.5581132,1.39320755 C76.0901913,1.86868162 76.3562264,2.49131691 76.3562264,3.26113208 C76.3562264,4.03094725 76.0901913,4.65924285 75.5581132,5.14603774 C75.0260351,5.63283262 74.3298156,5.87622642 73.469434,5.87622642 Z M87.1335849,25.6083019 C85.9562205,25.6083019 84.8637786,25.4101907 83.8562264,25.0139623 C82.8486742,24.6177339 81.9713245,24.0460415 81.2241509,23.2988679 C80.4769774,22.5516944 79.888304,21.6290621 79.4581132,20.5309434 C79.0279224,19.4328247 78.8128302,18.1818938 78.8128302,16.7781132 C78.8128302,15.3743326 79.0505637,14.1234017 79.5260377,13.025283 C80.0015118,11.9271643 80.6411281,11.004532 81.4449057,10.2573585 C82.2486833,9.51018494 83.1826362,8.93849255 84.2467925,8.54226415 C85.3109487,8.14603575 86.4203716,7.94792453 87.5750943,7.94792453 C88.616609,7.94792453 89.5392413,8.11773415 90.3430189,8.45735849 C91.1467965,8.79698283 91.8656572,9.22716721 92.4996226,9.74792453 L90.1562264,12.9743396 C89.3637696,12.3177326 88.6052866,11.989434 87.8807547,11.989434 C86.6581071,11.989434 85.6958526,12.4196183 84.9939623,13.28 C84.292072,14.1403817 83.9411321,15.3064077 83.9411321,16.7781132 C83.9411321,18.2498187 84.2977323,19.4158448 85.0109434,20.2762264 C85.7241545,21.1366081 86.6241455,21.5667925 87.7109434,21.5667925 C88.2543423,21.5667925 88.7807522,21.4479257 89.2901887,21.2101887 C89.7996252,20.9724516 90.2807525,20.6837753 90.7335849,20.3441509 L92.7033962,23.6045283 C91.8656562,24.3290602 90.9600049,24.8441494 89.9864151,25.1498113 C89.0128253,25.4554732 88.0618914,25.6083019 87.1335849,25.6083019 Z M101.375094,25.6083019 C100.310938,25.6083019 99.2807597,25.4101907 98.2845283,25.0139623 C97.2882969,24.6177339 96.4109472,24.0460415 95.6524528,23.2988679 C94.8939585,22.5516944 94.2883042,21.6290621 93.8354717,20.5309434 C93.3826392,19.4328247 93.1562264,18.1818938 93.1562264,16.7781132 C93.1562264,15.3743326 93.3826392,14.1234017 93.8354717,13.025283 C94.2883042,11.9271643 94.8939585,11.004532 95.6524528,10.2573585 C96.4109472,9.51018494 97.2882969,8.93849255 98.2845283,8.54226415 C99.2807597,8.14603575 100.310938,7.94792453 101.375094,7.94792453 C102.439251,7.94792453 103.463769,8.14603575 104.448679,8.54226415 C105.43359,8.93849255 106.305279,9.51018494 107.063774,10.2573585 C107.822268,11.004532 108.427922,11.9271643 108.880755,13.025283 C109.333587,14.1234017 109.56,15.3743326 109.56,16.7781132 C109.56,18.1818938 109.333587,19.4328247 108.880755,20.5309434 C108.427922,21.6290621 107.822268,22.5516944 107.063774,23.2988679 C106.305279,24.0460415 105.43359,24.6177339 104.448679,25.0139623 C103.463769,25.4101907 102.439251,25.6083019 101.375094,25.6083019 Z M101.375094,21.5667925 C102.393967,21.5667925 103.163771,21.1366081 103.684528,20.2762264 C104.205286,19.4158448 104.46566,18.2498187 104.46566,16.7781132 C104.46566,15.3064077 104.205286,14.1403817 103.684528,13.28 C103.163771,12.4196183 102.393967,11.989434 101.375094,11.989434 C100.33358,11.989434 99.5581158,12.4196183 99.0486792,13.28 C98.5392427,14.1403817 98.2845283,15.3064077 98.2845283,16.7781132 C98.2845283,18.2498187 98.5392427,19.4158448 99.0486792,20.2762264 C99.5581158,21.1366081 100.33358,21.5667925 101.375094,21.5667925 Z M112.424151,25.2007547 L112.424151,8.3554717 L116.499623,8.3554717 L116.839245,10.4950943 L116.975094,10.4950943 C117.699626,9.81584566 118.492071,9.22151198 119.352453,8.71207547 C120.212834,8.20263896 121.220372,7.94792453 122.375094,7.94792453 C124.209066,7.94792453 125.539241,8.54791853 126.36566,9.74792453 C127.19208,10.9479305 127.605283,12.6120648 127.605283,14.7403774 L127.605283,25.2007547 L122.61283,25.2007547 L122.61283,15.3856604 C122.61283,14.1630128 122.448681,13.3252853 122.120377,12.8724528 C121.792074,12.4196204 121.265664,12.1932075 120.541132,12.1932075 C119.907167,12.1932075 119.363776,12.3347156 118.910943,12.6177358 C118.458111,12.9007561 117.960003,13.3026389 117.416604,13.8233962 L117.416604,25.2007547 L112.424151,25.2007547 Z"></path></g></svg>