<svg xmlns="http://www.w3.org/2000/svg" width="328" height="40" viewBox="0 0 328 40">
  <g fill="none">
    <polygon fill="#850D87" points="12.8 12.55 0 26.05 12.8 39.5 15.725 39.5 15.725 39.075 3.4 25.95 15.725 12.95 15.725 12.55"/>
    <path fill="#850D87" d="M31.775 40C25.125 40 21.775 35.675 21.775 26 21.775 16.325 25.325 12.05 31.925 12.05 34.0316772 12.0823491 36.1280937 12.3506904 38.175 12.85L37.5 15.575C35.7187693 15.0044876 33.8687989 14.6765383 32 14.6 26.65 14.6 24.65 17.8 24.65 25.975 24.65 34.9 27.15 37.35 31.85 37.35 33.9729399 37.2777639 36.0616297 36.7937992 38 35.925L38.6 38.625C36.390356 39.4564864 34.0595863 39.9209514 31.7 40M53.45 40C46.8 40 42.65 36.3 42.65 26.05 42.65 15.8 47.05 12.05 53.45 12.05 59.85 12.05 64.15 15.2 64.15 26.05 64.125 36.35 60 40 53.45 40M53.45 14.475C48.6 14.475 45.6 16.975 45.6 26.05 45.6 35.125 48.4 37.5 53.45 37.5 58.5 37.5 61.2 34.85 61.2 25.975 61.2 16.475 57.9 14.4 53.45 14.4M86.6 39.5L86.6 37.225 86.35 37.225C83.9343663 38.8140222 81.1571265 39.7684297 78.275 40 73.275 40 69.125 37.825 69.125 26.4 69.125 14.975 74.375 12.025 80.175 12.025 82.3795946 12.1002099 84.5576002 12.5307459 86.625 13.3L86.625.6 89.35 0 89.35 39.5 86.6 39.5zM86.6 15.7C84.47435 14.9680354 82.2476625 14.5716176 80 14.525 75.95 14.525 71.95 16.45 71.95 26.4 71.95 35.575 74.65 37.475 78.6 37.475 80.25 37.475 81.85 37.125 86.45 34.825L86.6 15.7zM106.775 40C99.475 40 96.325 35.675 96.325 26.7 96.325 16.7 99.975 12.025 106.575 12.025 111.975 12.025 115.475 15.075 115.475 22.025 115.475 22.775 115.475 24.725 115.475 26.225L99.4 26.575C99.4 35 101.9 37.45 106.9 37.45 109.473378 37.2955574 112.005428 36.7300663 114.4 35.775L115 38.375C112.382594 39.2682354 109.659401 39.814555 106.9 40M112.9 21.725C112.9 16.725 110.6 14.375 106.7 14.375 102.35 14.375 99.65 16.875 99.45 24.375L112.85 24.125C112.85 23.1 112.85 22 112.85 21.8"/>
    <polygon fill="#850D87" points="124.425 12.55 137.25 26.05 124.425 39.5 121.525 39.5 121.525 39.075 133.8 26.1 121.525 12.95 121.525 12.55"/>
    <path fill="#777776" d="M175.425 39.5L175.425 18.425C175.425 15.775 174.825 14.725 171.525 14.725 168.553076 14.8946593 165.660833 15.7503526 163.075 17.225L163.075 39.5 160.325 39.5 160.325 18.425C160.325 15.675 159.575 14.725 156.725 14.725 153.680975 14.9344968 150.715874 15.7865375 148.025 17.225L148.025 39.5 145.275 39.5 145.275 12.5 148.025 12.5 148.025 15 148.275 15C151.26548 13.3122261 154.598233 12.3209456 158.025 12.1 160.275 12.1 162.025 12.7 162.675 15.15L162.925 15.15C165.768523 13.2475547 169.081671 12.1662398 172.5 12.025 176.8 12.025 178.2 14.3 178.2 17.4L178.2 39.5 175.425 39.5zM195.85 40C189.2 40 185 36.3 185 26.05 185 15.8 189.4 12.05 195.8 12.05 202.2 12.05 206.5 15.2 206.5 26.05 206.5 36.35 202.3 40 195.8 40M195.8 14.475C190.95 14.475 187.95 16.975 187.95 26.05 187.95 35.125 190.8 37.5 195.85 37.5 200.9 37.5 203.6 34.85 203.6 25.975 203.6 16.475 200.3 14.4 195.85 14.4M229.65 39.5L229.65 18.425C229.65 15.775 229.1 14.725 225.55 14.725 222.298063 14.8257791 219.114154 15.6816688 216.25 17.225L216.25 39.5 213.5 39.5 213.5 12.5 216.25 12.5 216.25 15 216.5 15C219.55743 13.2569171 222.984376 12.2631028 226.5 12.1 230 12.025 232.5 13.25 232.5 17.5L232.5 39.5 229.65 39.5zM255 39.5L254.75 37.425 254.5 37.425C251.789823 38.9041996 248.783071 39.7583905 245.7 39.925 241.7 39.925 239.25 37.75 239.25 33.075 238.909892 29.6268727 241.365163 26.5301354 244.8 26.075L254.65 24.95 254.65 17.5C254.65 15.525 253.65 14.65 251.35 14.65 248.091049 14.8598049 244.868512 15.4556385 241.75 16.425L241.2 13.925C244.575821 12.8881807 248.071386 12.2915819 251.6 12.15 256.15 12.15 257.35 14.125 257.35 17.15L257.35 39.65 255 39.5zM254.65 27.325L243.7 28.5C242.57075 29.6890049 241.974917 31.2869217 242.05 32.925 242.05 36.325 243.3 37.55 246.85 37.55 249.560188 37.270581 252.200269 36.517481 254.65 35.325L254.65 27.325zM282.15 39.5L282.15 37 281.9 37C278.928129 38.8278528 275.536219 39.860922 272.05 40 267.8 40 266.1 38.275 266.1 34.625L266.1 12.5 268.85 12.5 268.85 33.625C268.85 36.275 269.4 37.325 272.9 37.325 276.109428 37.258512 279.252654 36.399707 282.05 34.825L282.05 12.5 284.8 12.5 284.8 39.5 282.15 39.5zM299.825 40C296.925 40 295.675 38.575 295.675 35.325L295.675 15 291.875 15 291.875 12.5 295.675 12.5 295.675 6.4 298.425 5.8 298.425 12.5 306.425 12.5 306.425 15 298.425 15 298.425 35.6C298.425 36.925 299.075 37.325 300.175 37.325 302.374557 37.1508187 304.508603 36.4935326 306.425 35.4L307.025 37.9C304.798974 39.085975 302.342886 39.7767495 299.825 39.925M319 40C316.33609 39.9090259 313.696185 39.4634369 311.15 38.675L311.8 36.025C314.213389 36.8845374 316.740853 37.3816055 319.3 37.5 322.55 37.5 324.85 36.075 324.85 32.925 324.85 30.175 323.65 29.025 320 27.6L315.95 25.975C313.296538 25.2717149 311.449127 22.8700808 311.45 20.125 311.45 14.95 315.05 12 320.3 12 322.430602 12.0471627 324.554028 12.2645213 326.65 12.65L326.1 15.4C324.112319 14.8493085 322.062334 14.5552533 320 14.525 316.8 14.525 314.15 16 314.15 19.7 314.15 22.2 315 22.75 318.8 24.325L323.05 26.05C325.724995 26.9716297 327.514994 29.495729 327.5 32.325 327.5 37.5 324.05 40 319 40"/>
  </g>
</svg>
