<svg xmlns="http://www.w3.org/2000/svg" width="161" height="40" viewBox="0 0 161 40">
  <g fill="none">
    <polygon fill="#FF4D67" points=".286 1.357 9.214 1.357 9.214 38.857 .286 38.857"/>
    <polygon fill="#FF4D67" points="73.786 38.857 73.786 1.357 64.857 1.357 64.857 24.286 47.714 1.357 43.786 1.357 39.143 1.357 39.143 24.286 22.071 1.357 13.5 1.357 13.5 38.857 22.429 38.857 22.429 16 39.5 38.857 41 38.857 46.071 38.857 48.143 38.857 48.143 16 65.214 38.857"/>
    <g transform="translate(76.429)">
      <path fill="#FF4D67" d="M20.2142857,9.21428571 C26.2857143,9.21428571 30.6428571,13.6428571 30.6428571,20.0714286 C30.6428571,26.5 26.2857143,30.9285714 20.2142857,30.9285714 C14.0714286,30.9285714 9.78571429,26.5 9.78571429,20.0714286 C9.78571429,13.6428571 14.1428571,9.21428571 20.2142857,9.21428571 M20.2142857,0.642857143 C8.64285714,0.642857143 0.428571429,8.92857143 0.428571429,20.0714286 C0.428571429,31.2142857 8.64285714,39.5 20.2142857,39.5 C31.7857143,39.5 40,31.2142857 40,20.0714286 C40,8.92857143 31.7857143,0.642857143 20.2142857,0.642857143"/>
      <path fill="#24244C" d="M62.2857143,9.21428571 C68.3571429,9.21428571 72.7142857,13.6428571 72.7142857,20.0714286 C72.7142857,21.2857143 72.5714286,22.4285714 72.2857143,23.5 L71.0714286,21.8571429 L61.3571429,21.8571429 L67.2857143,29.7857143 C65.8571429,30.5 64.1428571,30.9285714 62.3571429,30.9285714 C56.2857143,30.9285714 51.9285714,26.5 51.9285714,20.0714286 C51.8571429,13.7142857 56.2142857,9.21428571 62.2857143,9.21428571 M62.2857143,0.642857143 C50.7142857,0.642857143 42.5,8.92857143 42.5,20.0714286 C42.5,31.2142857 50.7142857,39.5 62.2857143,39.5 C66.2142857,39.5 69.5714286,38.4285714 72.4285714,36.5714286 L74.0714286,38.7857143 L84.5714286,38.7857143 L78.6428571,30.7857143 C80.7142857,27.7857143 81.9285714,24.2857143 81.9285714,20.0714286 C82.0714286,8.92857143 73.8571429,0.642857143 62.2857143,0.642857143"/>
    </g>
  </g>
</svg>
