<svg xmlns="http://www.w3.org/2000/svg" width="170" height="40" viewBox="0 0 170 40">
  <path fill="#4B4BA9" fill-rule="evenodd" d="M35.7478139,12.8894153 C35.2034098,12.7829581 34.6156855,12.7297297 33.9846404,12.7297297 C32.4585165,12.7297297 31.1384391,13.0946974 30.0243686,13.8246435 C28.9102982,14.5545897 27.849658,15.426043 26.8424162,16.4390296 C26.2624891,15.2472807 25.4765471,14.3311375 24.4845665,13.6905725 C23.492586,13.0500074 22.1877696,12.7297297 20.5700783,12.7297297 C19.0744768,12.7297297 17.792552,13.0649041 16.7242652,13.7352628 C15.6559785,14.4056216 14.6487518,15.2025917 13.702555,16.1261971 L13.5194211,16.1261971 L13.0615862,13.266014 L7.56756757,13.266014 L7.56756757,35.4324324 L14.2977404,35.4324324 L14.2977404,20.4611619 C15.7017744,19.0310633 16.9836992,18.3160247 18.1435534,18.3160247 C19.1202727,18.3160247 19.8299097,18.6139574 20.2724856,19.2098319 C20.7150615,19.8057063 20.9363462,20.9080575 20.9363462,22.5169185 L20.9363462,35.4324324 L27.666519,35.4324324 L27.666519,20.4611619 C29.1315979,19.0310633 30.4287838,18.3160247 31.5581155,18.3160247 C32.5348348,18.3160247 33.2444718,18.6139574 33.6870477,19.2098319 C34.1296236,19.8057063 34.3509083,20.9080575 34.3509083,22.5169185 L34.3509083,35.4324324 L34.8636805,35.4324324 C31.3047532,40.0357409 25.7282763,43 19.4594595,43 C8.71229676,43 0,34.2877032 0,23.5405405 C0,12.7933778 8.71229676,4.08108108 19.4594595,4.08108108 C26.2749302,4.08108108 32.2720495,7.58486028 35.7478139,12.8894153 Z M50.504707,36.5135135 C48.8737645,36.5135135 47.3505486,36.2467109 45.9350137,35.7130977 C44.5194787,35.1794845 43.2885972,34.4019455 42.2423322,33.3804574 C41.1960672,32.3589693 40.3806082,31.1164314 39.7959308,29.6528067 C39.2112533,28.1891819 38.9189189,26.512137 38.9189189,24.6216216 C38.9189189,22.7920906 39.2266393,21.1379145 39.8420893,19.6590437 C40.4575393,18.1801728 41.2653053,16.930012 42.2654115,15.9085239 C43.2655177,14.8870358 44.4117761,14.1018738 45.7042211,13.5530146 C46.996666,13.0041553 48.3352497,12.7297297 49.7200121,12.7297297 C51.3509546,12.7297297 52.7741613,13.0041553 53.9896751,13.5530146 C55.2051888,14.1018738 56.220666,14.864167 57.0361373,15.8399168 C57.8516085,16.8156667 58.4593562,17.9667293 58.8593987,19.2931393 C59.2594412,20.6195493 59.4594595,22.0602833 59.4594595,23.6153846 C59.4594595,24.2252283 59.4286874,24.8045711 59.3671424,25.3534304 C59.3055974,25.9022896 59.2440533,26.3139279 59.1825084,26.5883576 L45.4734285,26.5883576 C45.7811535,28.2349355 46.4658313,29.4469816 47.5274825,30.2245322 C48.5891338,31.0020829 49.8892524,31.3908524 51.4278773,31.3908524 C53.0588198,31.3908524 54.7051238,30.8877389 56.3668387,29.8814969 L58.6286061,33.952183 C57.4592512,34.7449797 56.1591326,35.3700601 54.7282114,35.8274428 C53.2972901,36.2848256 51.8894694,36.5135135 50.504707,36.5135135 Z M45.4054054,22.4594595 L54.0540541,22.4594595 C54.0540541,21.1713564 53.7480528,20.128622 53.1360411,19.3312248 C52.5240294,18.5338277 51.4932882,18.1351351 50.0437868,18.1351351 C48.9163968,18.1351351 47.925919,18.4878247 47.0723237,19.1932145 C46.2187284,19.8986043 45.6630945,20.9873417 45.4054054,22.4594595 Z M68.9874564,36.5135135 C67.8080893,36.5135135 66.814953,36.3315662 66.0080176,35.9676661 C65.2010822,35.603766 64.5570954,35.0958298 64.0760378,34.4438422 C63.5949801,33.7918545 63.2458306,33.0034162 63.0285788,32.0785035 C62.811327,31.1535908 62.7027027,30.1149749 62.7027027,28.9626246 L62.7027027,4.08108108 L69.5461011,4.08108108 L69.5461011,29.2355483 C69.5461011,29.9330235 69.678002,30.4182163 69.9418078,30.6911414 C70.2056136,30.9640664 70.4771743,31.1005269 70.7564981,31.1005269 L71.1522048,31.1005269 C71.2608308,31.1005269 71.4082494,31.0702023 71.5944653,31.0095523 L72.4324324,35.9676661 C72.0600007,36.1192912 71.5867092,36.2481705 71.0125436,36.354308 C70.4383781,36.4604455 69.7633557,36.5135135 68.9874564,36.5135135 Z M81.2951022,36.5135135 C79.7713373,36.5135135 78.2087243,36.2238421 76.6072164,35.6444906 C75.0057084,35.0651392 73.6141276,34.302846 72.4324324,33.3575884 L75.511044,29.1496881 C76.5683503,29.9424849 77.5789955,30.5370736 78.54301,30.9334719 C79.5070245,31.3298703 80.486573,31.5280665 81.4816847,31.5280665 C82.5078937,31.5280665 83.2542164,31.360362 83.720675,31.024948 C84.1871336,30.689534 84.4203594,30.2169123 84.4203594,29.6070686 C84.4203594,29.2411624 84.2881981,28.9133764 84.0238716,28.6237006 C83.759545,28.3340249 83.4019321,28.0672223 82.9510221,27.8232848 C82.5001121,27.5793474 81.9947895,27.3582823 81.4350391,27.1600832 C80.8752887,26.961884 80.2999984,26.740819 79.7091508,26.4968815 C78.9939142,26.2224519 78.2786884,25.9022887 77.5634518,25.5363825 C76.8482152,25.1704763 76.1951829,24.7207234 75.6043353,24.1871102 C75.0134877,23.653497 74.5314877,23.0284166 74.1583208,22.3118503 C73.7851538,21.595284 73.5985732,20.7643845 73.5985732,19.8191268 C73.5985732,18.7823926 73.8084764,17.8219032 74.2282892,16.9376299 C74.648102,16.0533566 75.2467149,15.3063094 76.024146,14.6964657 C76.801577,14.086622 77.7344803,13.6063774 78.8228838,13.2557173 C79.9112873,12.9050572 81.1240615,12.7297297 82.461243,12.7297297 C84.2337858,12.7297297 85.7886246,13.0270241 87.125806,13.6216216 C88.4629874,14.2162192 89.6291165,14.8794142 90.6242283,15.6112266 L87.5456167,19.6361746 C86.7059911,19.026331 85.8819266,18.5537092 85.0733983,18.2182952 C84.26487,17.8828812 83.4563538,17.7151767 82.6478255,17.7151767 C80.9063799,17.7151767 80.0356702,18.3097654 80.0356702,19.4989605 C80.0356702,19.8648667 80.1600573,20.1774069 80.4088352,20.4365904 C80.6576132,20.695774 80.9919035,20.9320849 81.4117163,21.1455301 C81.8315291,21.3589754 82.3135291,21.5647946 82.8577308,21.7629938 C83.4019326,21.961193 83.9694487,22.1670121 84.5602963,22.3804574 C85.3066302,22.654887 86.0451786,22.9674272 86.7759638,23.3180873 C87.506749,23.6687474 88.1753297,24.1032545 88.7817259,24.6216216 C89.3881221,25.1399887 89.8778963,25.772692 90.2510632,26.5197505 C90.6242302,27.266809 90.8108108,28.158692 90.8108108,29.1954262 C90.8108108,30.2321604 90.6086818,31.1926498 90.2044176,32.0769231 C89.8001535,32.9611964 89.1937663,33.7311125 88.385238,34.3866944 C87.5767097,35.0422763 86.5816129,35.5606357 85.3999177,35.9417879 C84.2182225,36.3229402 82.8499643,36.5135135 81.2951022,36.5135135 Z M94.0540541,35.4324324 L94.0540541,12.7297297 L100.540541,12.7297297 L100.540541,35.4324324 L94.0540541,35.4324324 Z M97.8378378,9.48648649 C96.7397931,9.48648649 95.8346617,9.18265628 95.1224165,8.57498675 C94.4101713,7.96731722 94.0540541,7.18301134 94.0540541,6.22204557 C94.0540541,5.26107981 94.4101713,4.48383975 95.1224165,3.89030207 C95.8346617,3.29676439 96.7397931,3 97.8378378,3 C98.9655594,3 99.8781099,3.29676439 100.575517,3.89030207 C101.272923,4.48383975 101.621622,5.26107981 101.621622,6.22204557 C101.621622,7.18301134 101.272923,7.96731722 100.575517,8.57498675 C99.8781099,9.18265628 98.9655594,9.48648649 97.8378378,9.48648649 Z M115.873918,36.5135135 C114.316167,36.5135135 112.870775,36.2467109 111.537699,35.7130977 C110.204623,35.1794845 109.043816,34.4095684 108.055244,33.4033264 C107.066671,32.3970844 106.287807,31.1545465 105.718628,29.6756757 C105.14945,28.1968048 104.864865,26.512137 104.864865,24.6216216 C104.864865,22.7311063 105.179406,21.0464384 105.808498,19.5675676 C106.43759,18.0886967 107.283856,16.8461589 108.34732,15.8399168 C109.410785,14.8336748 110.646483,14.0637587 112.054451,13.5301455 C113.462418,12.9965323 114.930277,12.7297297 116.458072,12.7297297 C117.836083,12.7297297 119.056802,12.9584177 120.120267,13.4158004 C121.183732,13.8731832 122.134845,14.4525259 122.973634,15.1538462 L119.873125,19.4989605 C118.824638,18.6146872 117.821102,18.1725572 116.862486,18.1725572 C115.244821,18.1725572 113.971678,18.7519 113.043019,19.9106029 C112.114359,21.0693059 111.650036,22.6396297 111.650036,24.6216216 C111.650036,26.6036135 112.121848,28.1739374 113.065486,29.3326403 C114.009124,30.4913433 115.199887,31.0706861 116.637811,31.0706861 C117.356774,31.0706861 118.053258,30.9106045 118.727285,30.5904366 C119.401312,30.2702687 120.037883,29.8814992 120.637018,29.4241164 L123.243243,33.8149688 C122.134843,34.7907187 120.936591,35.4844054 119.64845,35.8960499 C118.36031,36.3076944 117.102145,36.5135135 115.873918,36.5135135 Z M134.076437,36.5135135 C132.673785,36.5135135 131.315919,36.2467109 130.002798,35.7130977 C128.689677,35.1794845 127.533253,34.4095684 126.53349,33.4033264 C125.533727,32.3970844 124.735422,31.1545465 124.138548,29.6756757 C123.541675,28.1968048 123.243243,26.512137 123.243243,24.6216216 C123.243243,22.7311063 123.541675,21.0464384 124.138548,19.5675676 C124.735422,18.0886967 125.533727,16.8461589 126.53349,15.8399168 C127.533253,14.8336748 128.689677,14.0637587 130.002798,13.5301455 C131.315919,12.9965323 132.673785,12.7297297 134.076437,12.7297297 C135.479089,12.7297297 136.829494,12.9965323 138.127693,13.5301455 C139.425892,14.0637587 140.574856,14.8336748 141.574618,15.8399168 C142.574381,16.8461589 143.372686,18.0886967 143.96956,19.5675676 C144.566433,21.0464384 144.864865,22.7311063 144.864865,24.6216216 C144.864865,26.512137 144.566433,28.1968048 143.96956,29.6756757 C143.372686,31.1545465 142.574381,32.3970844 141.574618,33.4033264 C140.574856,34.4095684 139.425892,35.1794845 138.127693,35.7130977 C136.829494,36.2467109 135.479089,36.5135135 134.076437,36.5135135 Z M135.135135,31.1081081 C136.560744,31.1081081 137.637854,30.5254036 138.366498,29.359977 C139.095143,28.1945504 139.459459,26.6151144 139.459459,24.6216216 C139.459459,22.6281288 139.095143,21.0486928 138.366498,19.8832662 C137.637854,18.7178397 136.560744,18.1351351 135.135135,18.1351351 C133.677846,18.1351351 132.592816,18.7178397 131.880012,19.8832662 C131.167208,21.0486928 130.810811,22.6281288 130.810811,24.6216216 C130.810811,26.6151144 131.167208,28.1945504 131.880012,29.359977 C132.592816,30.5254036 133.677846,31.1081081 135.135135,31.1081081 Z M149.189189,35.4324324 L149.189189,13.266014 L154.703428,13.266014 L155.162948,16.0815067 L155.346756,16.0815067 C156.32707,15.187695 157.399273,14.4056216 158.563396,13.7352628 C159.727519,13.0649041 161.090747,12.7297297 162.653123,12.7297297 C165.134543,12.7297297 166.934311,13.5192515 168.052482,15.0983188 C169.170653,16.6773861 169.72973,18.8671918 169.72973,21.6678017 L169.72973,35.4324324 L162.974787,35.4324324 L162.974787,22.5169185 C162.974787,20.9080575 162.752688,19.8057063 162.308483,19.2098319 C161.864278,18.6139574 161.152029,18.3160247 160.171715,18.3160247 C159.313941,18.3160247 158.578716,18.5022327 157.96602,18.8746542 C157.353323,19.2470757 156.679368,19.7759063 155.944132,20.4611619 L155.944132,35.4324324 L149.189189,35.4324324 Z" transform="translate(0 -3)"/>
</svg>
