<svg version="1" xmlns="http://www.w3.org/2000/svg" width="693.333" height="693.333" viewBox="0 0 520.000000 520.000000"><path d="M407.5 55.7c-1.1.3-14.1 12.4-28.9 27-18.1 17.7-27.5 26.3-28.5 25.9-.9-.2-5.4-2.1-10.1-4-46.8-19.3-117.3-18.5-161.6 1.9l-7.2 3.3-25.3-25.5c-14-14-26.6-26.1-28.1-26.9-1.5-.8-4.5-1.4-6.7-1.4-5.1 0-9.5 4.1-10.4 9.7-.4 2.1-.7 30.3-.7 62.7v58.9l-3 9.2c-2.8 8.9-5.7 23.6-6.2 32l-.3 4-20.2 10.9C59.1 249.4 50 254.6 50 255c0 .3 6.7 4.2 15 8.6 8.2 4.3 15 8.1 15 8.4 0 .3-4.5 5.6-10.1 11.8-5.6 6.2-9.9 11.5-9.8 11.7.2.2 6.6 1.2 14.2 2.3 7.7 1.1 14.1 2.2 14.3 2.5.2.2-5 7.5-11.5 16.3-6.6 8.7-11.9 15.9-11.8 16 .1.1 8.5.7 18.7 1.3 14 .9 18.7 1.5 19.5 2.6.6.8 3.7 5.8 7 11.1 5.4 8.5 6.6 9.9 11.5 12.4 3 1.5 8.7 3.5 12.5 4.4 3.9.9 7.9 1.9 9 2.2 1.1.3 16 .9 33 1.4 34.2 1 43 2.3 54.8 7.9 7.8 3.7 16.9 11 22.1 17.8 2.3 2.8 4.4 5.2 4.9 5.2.4.1.7-2.6.7-5.9 0-4.7.4-6.2 1.6-6.7 2.5-1 4.4 2.4 4.4 8v4.9l4.6-6.1c5.6-7.5 15.9-15.3 24.4-18.6 12.5-4.7 19.7-5.6 51.5-6.5 16.5-.5 32.7-1.3 36-1.9 12.9-2.3 19-6.3 30-20l8.7-10.9 10.7-.6c5.8-.4 14.1-1 18.4-1.4l7.8-.7-12.2-16.3c-6.7-8.9-12-16.4-11.8-16.6.2-.2 6.6-1.3 14.2-2.4 7.7-1.1 14.1-2.3 14.3-2.5.3-.2-4-5.5-9.6-11.6-5.5-6.2-10-11.5-10-11.9 0-.4 6.8-4.3 15.1-8.6 8.2-4.3 14.6-8.3 14.2-8.7-.4-.4-8.5-4.9-17.8-10-9.4-5-18-9.7-19.1-10.4-1.8-1.1-2.3-2.8-2.8-9.5-.8-8.6-4.2-23.8-7.5-33.4-2-5.7-2.1-8-2.1-66.3 0-66.7.2-64.6-6.4-67.7-3.5-1.6-4.6-1.8-8.1-.9zM210.9 184.5c18.4 4.4 32.8 18.6 37.6 37.2 5.8 22.1-5.9 46.7-26.9 56.8-19.4 9.3-40.4 6.1-56.2-8.7-21.2-19.8-21-53 .2-72.9 12.6-11.7 29-16.2 45.3-12.4zm121.9 0c23.1 5.5 39.2 25.5 39.2 49 0 30.3-27.4 54.2-57 49.6-25-3.8-43-24.5-43-49.5 0-13.5 4.1-24.2 13-33.9 12.5-13.7 30.2-19.3 47.8-15.2zm-56.6 106.2c1 .9 1.8 3 1.8 4.9 0 2.9-.9 4-6.9 8.9-8.8 7.1-12 7.4-19.9 1.4-3-2.3-6.3-5-7.3-6-2.3-2.3-2.4-6.6-.2-9.1 1.4-1.6 3.3-1.8 16.1-1.8 12.1 0 14.8.3 16.4 1.7z"/><path d="M205.4 213.3c-11.1 4.2-18.4 15.8-16.9 26.7 2.3 15.8 17.4 25.4 32.7 20.8 5.4-1.6 13.2-8.8 15.3-14 2.2-5.4 2.2-14.2 0-19.3-4.8-11.7-19.8-18.5-31.1-14.2zM299.8 213.5c-11.7 4.3-18.7 16.8-16 28.6 4.7 20.3 29.5 26.7 43.2 11.1 10.9-12.4 6.7-31.6-8.5-38.8-5.7-2.7-12.9-3-18.7-.9zM134.3 397.6c1.9 30.6 16.4 51.2 40.7 58.1 6.1 1.7 11.9 1.8 86 1.8 64.4 0 80.5-.3 85-1.4 25.5-6.4 40.6-27.2 42.7-58.8l.6-9.2-5.3 2c-8.9 3.4-23.8 4.9-56.9 5.9-32.6 1-42.1 2.1-50.3 5.9l-4.3 1.9 3.7.1c4 .1 7 2.3 6.2 4.6-.5 1.1-2.2 1.5-6.5 1.5-3.2 0-5.9.4-5.9.8s1.6 2.4 3.5 4.2c2.2 2.2 3.5 4.2 3.3 5.5-.5 3.4-3.7 3-7.9-1.1l-3.9-3.8v5.1c0 3.3-.6 5.7-1.5 6.7-2.7 2.6-4.2.8-4.9-5.6l-.7-6.1-3.9 3.8c-4.1 4-7.3 4.4-7.8 1-.2-1.3 1.1-3.3 3.3-5.5 1.9-1.8 3.5-3.8 3.5-4.2 0-.4-2.7-.8-5.9-.8-4 0-6.1-.4-6.4-1.3-.9-2.3.9-3.9 4.9-4.7l3.9-.6-3.5-1.6c-8.8-3.8-25-5.8-48-5.8-28.7 0-54.5-3-62.2-7.1-2.1-1.1-2.1-1.1-1.5 8.7z"/></svg>