<svg xmlns="http://www.w3.org/2000/svg" width="169" height="168" viewBox="0 0 169 168">
  <g fill="none" fill-rule="evenodd">
    <path fill="#292A2E" d="M84.5,168 C37.8319386,168 0,130.391919 0,84 C0,37.608081 37.8319386,0 84.5,0 C131.168061,0 169,37.608081 169,84 C169,130.391919 131.168061,168 84.5,168 Z"/>
    <path fill="#FFF" d="M84.5,163 C128.413258,163 164,127.623831 164,84 C164,40.3761692 128.413258,5 84.5,5 C40.5867416,5 5,40.3761692 5,84 C5,127.623831 40.5867416,163 84.5,163 Z"/>
    <g transform="translate(24 25)">
      <path fill="#292A2E" d="M120.975391,56.6607955 L112.025488,61.4660471 L118.084625,68.2479102 L109.458353,69.5012439 L116.609328,79.0683611 L105.855988,79.6842045 C105.314249,80.8787264 100.931865,85.8469757 100.931865,85.9430605 C98.4038335,89.489917 97.1398179,92.438537 97.1398179,94.7889207 C97.1398179,106.090121 92.0567879,114.535971 80.7302637,114.535971 L40.6068025,114.535971 C29.2802784,114.535971 24.2129492,106.090121 24.2129492,94.7889207 C24.2129492,92.50213 22.5743666,89.5214816 19.2972014,85.8469757 C17.7726038,83.6655286 16.2187248,81.2772204 15.4841723,79.6540341 L4.5943664,79.0303754 L11.571566,69.695748 L3.01142314,68.4520223 L9.03144458,61.7139396 L0,56.8649076 L11.9109721,50.4698416 C12.1195272,45.8271094 13.1033653,41.3856975 14.7364112,37.2713991 L14.7364121,3.38309145 C14.7364121,1.57489938 16.205526,0.109070094 18.0177699,0.109070094 C18.8871834,0.109070094 19.7210603,0.453333818 20.3362915,1.06626529 L34.8777843,15.5534015 C49.2203667,8.18505338 72.1898712,8.18505338 86.344891,15.4896423 L100.931865,0.957195191 C101.547096,0.344263724 102.380973,0 103.250386,0 C105.06263,0 106.531744,1.46582929 106.531744,3.27402135 L106.531744,37.0573299 C108.215943,41.2312068 109.230543,45.7458719 109.442813,50.4688917 L120.975391,56.6607955 Z"/>
      <g transform="translate(18.868 85.534)">
        <path fill="#FFF" d="M7.30098668,2.90555089 C11.4903924,3.64242982 13.9312042,3.47509084 19.5515729,3.47509084 C26.7526704,3.47509084 31.9485062,4.58495245 35.1392364,6.80470896 C38.3299666,9.02446548 41.5013379,11.9940757 41.8372881,15.9730347 C42.3963825,11.9940757 44.9601801,9.09748357 48.1801831,6.84851973 C51.400186,4.59955589 56.610658,3.47509084 63.8117555,3.47509084 C69.6663062,3.47509084 69.826498,3.7278575 76.4575219,2.90555089 C78.4319644,2.66070226 80.4543519,1.58508514 82.0612582,0.410573082 C79.8312652,3.89690355 79.2597004,5.42967955 78.267148,9.18099685 C77.6734614,9.50759996 77.008128,9.77114386 76.413613,9.95908403 C73.4570649,10.8937184 69.2564877,11.3610285 63.8117555,11.3610285 C58.1913867,11.3610285 53.9029926,11.5508733 50.9464445,11.9305684 C47.9898963,12.3102636 45.8822897,12.9674185 44.6235612,13.9020529 C43.3648328,14.8366872 42.870759,16.2094108 42.6951225,18.0202648 L42.6951225,18.4583724 L40.9934223,18.4583724 L40.9934223,18.0202648 C40.8763313,16.2094108 40.0863134,14.8366872 38.827585,13.9020529 C37.5688565,12.9674185 35.4612499,12.3102636 32.5047017,11.9305684 C29.5481536,11.5508733 25.2304872,11.3610285 19.5515729,11.3610285 C14.3410227,11.3610285 10.2868071,10.8937184 7.3888045,9.95908403 C6.62499685,9.71274856 5.92869346,9.4668696 5.34625853,9.24022447 C4.90521724,6.95008173 3.94616362,4.99487451 0.377334069,0.293103358 C2.0584721,1.62030038 4.50804954,2.41429828 7.30098668,2.90555089 Z"/>
        <path fill="#FF8282" d="M40.8528814,12.3618401 L40.8528814,9.57651246 C40.8528814,9.03405484 41.2936153,8.59430605 41.8372881,8.59430605 C42.380961,8.59430605 42.8216949,9.03405484 42.8216949,9.57651246 L42.8216949,12.3618401 L44.7956312,10.392316 C45.1800659,10.0087406 45.8033578,10.0087406 46.1877926,10.392316 C46.5722273,10.7758915 46.5722273,11.3977902 46.1877926,11.7813656 L44.2138563,13.7508897 L47.0054237,13.7508897 C47.5490966,13.7508897 47.9898305,14.1906385 47.9898305,14.7330961 C47.9898305,15.2755537 47.5490966,15.7153025 47.0054237,15.7153025 L44.2138563,15.7153025 L46.1877926,17.6848265 C46.5722273,18.068402 46.5722273,18.6903007 46.1877926,19.0738761 C45.8033578,19.4574516 45.1800659,19.4574516 44.7956312,19.0738761 L42.8216949,17.1043521 L42.8216949,19.8896797 C42.8216949,20.4321373 42.380961,20.8718861 41.8372881,20.8718861 C41.2936153,20.8718861 40.8528814,20.4321373 40.8528814,19.8896797 L40.8528814,17.1043521 L38.8789451,19.0738761 C38.4945104,19.4574516 37.8712185,19.4574516 37.4867837,19.0738761 C37.1023489,18.6903007 37.1023489,18.068402 37.4867837,17.6848265 L39.4607199,15.7153025 L36.6691525,15.7153025 C36.1254797,15.7153025 35.6847458,15.2755537 35.6847458,14.7330961 C35.6847458,14.1906385 36.1254797,13.7508897 36.6691525,13.7508897 L39.4607199,13.7508897 L37.4867837,11.7813656 C37.1023489,11.3977902 37.1023489,10.7758915 37.4867837,10.392316 C37.8712185,10.0087406 38.4945104,10.0087406 38.8789451,10.392316 L40.8528814,12.3618401 Z"/>
      </g>
      <g transform="translate(28.712 36.423)">
        <ellipse cx="14.356" cy="14.324" fill="#FFF" rx="14.356" ry="14.324"/>
        <ellipse cx="49.22" cy="14.324" fill="#FFF" rx="14.356" ry="14.324"/>
        <ellipse cx="18.253" cy="15.347" fill="#292A2E" rx="7.178" ry="7.162"/>
        <ellipse cx="45.324" cy="15.347" fill="#292A2E" rx="7.178" ry="7.162"/>
      </g>
      <path fill="#FF8282" d="M57.0069123,66.2989324 L63.576626,66.2989324 C64.7138107,66.2989324 65.6356809,67.2187421 65.6356809,68.3533848 C65.6356809,68.9699275 65.3581685,69.5538761 64.8797345,69.9440658 L62.1891373,72.1383986 C61.1491849,72.9865381 59.658891,73.0019736 58.6015169,72.1755569 L55.7463944,69.9440658 C54.8576645,69.249457 54.7015596,67.9675178 55.3977244,67.0807743 C55.7851824,66.5872478 56.3785934,66.2989324 57.0069123,66.2989324 Z"/>
    </g>
  </g>
</svg>
